<svg width="20" height="20" viewBox="0 0 20 20" fill="none" xmlns="http://www.w3.org/2000/svg">
<path d="M17.5 2.5H2.5C2.16848 2.5 1.85054 2.6317 1.61612 2.86612C1.3817 3.10054 1.25 3.41848 1.25 3.75V16.25C1.25 16.5815 1.3817 16.8995 1.61612 17.1339C1.85054 17.3683 2.16848 17.5 2.5 17.5H17.5C17.8315 17.5 18.1495 17.3683 18.3839 17.1339C18.6183 16.8995 18.75 16.5815 18.75 16.25V3.75C18.75 3.41848 18.6183 3.10054 18.3839 2.86612C18.1495 2.6317 17.8315 2.5 17.5 2.5ZM2.5 3.75H6.25V16.25H2.5V3.75ZM17.5 16.25H7.5V3.75H17.5V16.25Z" fill="#001C42"/>
<path d="M17.5 2.5H2.5C2.16848 2.5 1.85054 2.6317 1.61612 2.86612C1.3817 3.10054 1.25 3.41848 1.25 3.75V16.25C1.25 16.5815 1.3817 16.8995 1.61612 17.1339C1.85054 17.3683 2.16848 17.5 2.5 17.5H17.5C17.8315 17.5 18.1495 17.3683 18.3839 17.1339C18.6183 16.8995 18.75 16.5815 18.75 16.25V3.75C18.75 3.41848 18.6183 3.10054 18.3839 2.86612C18.1495 2.6317 17.8315 2.5 17.5 2.5ZM2.5 3.75H6.25V16.25H2.5V3.75ZM17.5 16.25H7.5V3.75H17.5V16.25Z" fill="#001C42"/>
</svg>
