<svg width="16" height="16" viewBox="0 0 16 16" fill="none" xmlns="http://www.w3.org/2000/svg">
<g clip-path="url(#clip0_1089_6449)">
<path d="M1.33333 9.33365C2.06971 9.33365 2.66667 8.7367 2.66667 8.00032C2.66667 7.26394 2.06971 6.66699 1.33333 6.66699C0.596954 6.66699 0 7.26394 0 8.00032C0 8.7367 0.596954 9.33365 1.33333 9.33365Z" fill="#374957"/>
<path d="M7.99983 9.33365C8.73621 9.33365 9.33317 8.7367 9.33317 8.00032C9.33317 7.26394 8.73621 6.66699 7.99983 6.66699C7.26346 6.66699 6.6665 7.26394 6.6665 8.00032C6.6665 8.7367 7.26346 9.33365 7.99983 9.33365Z" fill="#374957"/>
<path d="M14.6668 9.33365C15.4032 9.33365 16.0002 8.7367 16.0002 8.00032C16.0002 7.26394 15.4032 6.66699 14.6668 6.66699C13.9305 6.66699 13.3335 7.26394 13.3335 8.00032C13.3335 8.7367 13.9305 9.33365 14.6668 9.33365Z" fill="#374957"/>
</g>
<defs>
<clipPath id="clip0_1089_6449">
<rect width="16" height="16" fill="white"/>
</clipPath>
</defs>
</svg>
