<svg width="34" height="16" viewBox="0 0 34 16" fill="none" xmlns="http://www.w3.org/2000/svg">
<path d="M0.622354 5.42041C0.278659 5.42041 0 5.69907 0 6.04276V9.90136C0 10.2451 0.278659 10.5237 0.622354 10.5237C0.966049 10.5237 1.24471 10.2451 1.24471 9.90136V6.04276C1.24471 5.69907 0.966049 5.42041 0.622354 5.42041Z" fill="white"/>
<path d="M3.08695 2.27783C2.74326 2.27783 2.4646 2.55649 2.4646 2.90019V13.0446C2.4646 13.3883 2.74326 13.6669 3.08695 13.6669C3.43065 13.6669 3.70931 13.3883 3.70931 13.0446V2.90019C3.70931 2.55649 3.43065 2.27783 3.08695 2.27783Z" fill="white"/>
<path d="M5.55131 3.3667C5.20761 3.3667 4.92896 3.64536 4.92896 3.98905V11.9552C4.92896 12.2989 5.20761 12.5775 5.55131 12.5775C5.895 12.5775 6.17366 12.2989 6.17366 11.9552V3.98905C6.17366 3.64536 5.895 3.3667 5.55131 3.3667Z" fill="white"/>
<path d="M8.01591 5.42041C7.67221 5.42041 7.39355 5.69907 7.39355 6.04276V9.90136C7.39355 10.2451 7.67221 10.5237 8.01591 10.5237C8.3596 10.5237 8.63826 10.2451 8.63826 9.90136V6.04276C8.63826 5.69907 8.3596 5.42041 8.01591 5.42041Z" fill="white"/>
<path d="M10.4869 0C10.1432 0 9.8645 0.278659 9.8645 0.622354V15.3224C9.8645 15.6661 10.1432 15.9447 10.4869 15.9447C10.8306 15.9447 11.1092 15.6661 11.1092 15.3224V0.622354C11.1092 0.278659 10.8306 0 10.4869 0Z" fill="white"/>
<path d="M12.9512 3.03711C12.6075 3.03711 12.3289 3.31577 12.3289 3.65946V12.2853C12.3289 12.629 12.6075 12.9076 12.9512 12.9076C13.2949 12.9076 13.5736 12.629 13.5736 12.2853V3.65946C13.5736 3.31577 13.2949 3.03711 12.9512 3.03711Z" fill="white"/>
<path d="M15.4034 4.07666C15.0597 4.07666 14.781 4.35532 14.781 4.69901V11.2462C14.781 11.5899 15.0597 11.8685 15.4034 11.8685C15.7471 11.8685 16.0257 11.5899 16.0257 11.2462V4.69901C16.0257 4.35532 15.7471 4.07666 15.4034 4.07666Z" fill="white"/>
<path d="M17.8926 5.42041C17.5489 5.42041 17.2703 5.69907 17.2703 6.04276V9.90136C17.2703 10.2451 17.5489 10.5237 17.8926 10.5237C18.2363 10.5237 18.515 10.2451 18.515 9.90136V6.04276C18.515 5.69907 18.2363 5.42041 17.8926 5.42041Z" fill="white"/>
<path d="M20.3448 4.07666C20.0011 4.07666 19.7224 4.35532 19.7224 4.69901V11.2462C19.7224 11.5899 20.0011 11.8685 20.3448 11.8685C20.6885 11.8685 20.9671 11.5899 20.9671 11.2462V4.69901C20.9671 4.35532 20.6885 4.07666 20.3448 4.07666Z" fill="white"/>
<path d="M22.8094 3.03711C22.4657 3.03711 22.187 3.31577 22.187 3.65946V12.2853C22.187 12.629 22.4657 12.9076 22.8094 12.9076C23.1531 12.9076 23.4317 12.629 23.4317 12.2853V3.65946C23.4317 3.31577 23.1531 3.03711 22.8094 3.03711Z" fill="white"/>
<path d="M25.2801 0C24.9364 0 24.6577 0.278659 24.6577 0.622354V15.3224C24.6577 15.6661 24.9364 15.9447 25.2801 15.9447C25.6238 15.9447 25.9024 15.6661 25.9024 15.3224V0.622354C25.9024 0.278659 25.6238 0 25.2801 0Z" fill="white"/>
<path d="M27.7447 3.3667C27.401 3.3667 27.1223 3.64536 27.1223 3.98905V11.9552C27.1223 12.2989 27.401 12.5775 27.7447 12.5775C28.0884 12.5775 28.367 12.2989 28.367 11.9552V3.98905C28.367 3.64536 28.0884 3.3667 27.7447 3.3667Z" fill="white"/>
<path d="M30.209 5.42041C29.8653 5.42041 29.5867 5.69907 29.5867 6.04276V9.90136C29.5867 10.2451 29.8653 10.5237 30.209 10.5237C30.5527 10.5237 30.8314 10.2451 30.8314 9.90136V6.04276C30.8314 5.69907 30.5527 5.42041 30.209 5.42041Z" fill="white"/>
<path d="M32.6736 5.42041C32.3299 5.42041 32.0513 5.69907 32.0513 6.04276V9.90136C32.0513 10.2451 32.3299 10.5237 32.6736 10.5237C33.0173 10.5237 33.296 10.2451 33.296 9.90136V6.04276C33.296 5.69907 33.0173 5.42041 32.6736 5.42041Z" fill="white"/>
</svg>
